<?xml version="1.0" standalone="no"?>
<!DOCTYPE svg PUBLIC "-//W3C//DTD SVG 20010904//EN"
 "http://www.w3.org/TR/2001/REC-SVG-20010904/DTD/svg10.dtd">
<svg version="1.0" xmlns="http://www.w3.org/2000/svg"
 width="512.000000pt" height="512.000000pt" viewBox="0 0 512.000000 512.000000"
 preserveAspectRatio="xMidYMid meet">
<metadata>
Created by potrace 1.14, written by Peter Selinger 2001-2017
</metadata>
<g transform="translate(0.000000,512.000000) scale(0.100000,-0.100000)"
fill="#000000" stroke="none">
<path d="M1126 4483 c-4 -4 -27 -8 -52 -9 -24 -2 -61 -8 -82 -15 -20 -7 -38
-12 -39 -11 -5 3 -109 -54 -143 -78 -69 -48 -224 -200 -204 -200 3 0 -4 -9
-17 -20 -13 -10 -21 -19 -17 -20 4 0 -4 -12 -17 -26 -14 -15 -25 -33 -25 -40
0 -8 -3 -14 -8 -14 -4 0 -18 -21 -32 -47 -13 -27 -36 -68 -50 -93 -14 -25 -36
-70 -49 -100 -13 -30 -31 -73 -41 -95 -10 -22 -26 -62 -36 -90 -9 -27 -22 -56
-27 -62 -5 -7 -7 -13 -3 -13 3 0 -1 -17 -10 -37 -8 -21 -18 -49 -20 -63 -3
-13 -10 -30 -15 -37 -6 -7 -8 -17 -4 -23 3 -5 1 -10 -5 -10 -6 0 -8 -5 -5 -10
4 -6 2 -16 -3 -23 -8 -10 -26 -72 -22 -79 0 -2 -6 -20 -15 -41 -9 -21 -13 -42
-10 -47 4 -6 2 -10 -3 -10 -5 0 -9 -6 -9 -12 0 -7 -10 -56 -23 -108 -12 -52
-23 -99 -25 -105 -1 -5 -5 -21 -9 -35 -4 -14 -9 -38 -11 -55 -2 -16 -4 -30 -5
-30 -4 0 -11 -47 -14 -103 -7 -103 26 -192 96 -263 40 -41 148 -109 148 -93 0
3 7 1 15 -6 9 -7 18 -10 22 -7 3 4 12 2 20 -4 10 -9 13 -8 13 0 0 7 5 9 12 5
16 -10 73 -6 118 7 50 15 120 51 120 61 0 5 4 6 10 3 5 -3 10 -3 10 2 0 4 13
22 28 38 43 48 74 106 88 168 1 4 2 8 4 10 1 1 3 9 5 17 1 8 22 76 45 150 23
74 48 155 55 180 7 25 27 90 45 145 17 55 32 105 33 110 2 6 6 16 10 23 5 6 5
17 2 22 -3 6 -1 10 6 10 7 0 10 3 6 6 -3 4 0 22 8 40 8 19 14 36 15 39 1 7 9
32 17 53 3 9 7 20 7 23 2 16 54 66 79 77 22 10 34 9 61 -2 46 -19 77 -64 131
-187 50 -112 185 -391 194 -399 4 -3 15 -21 25 -40 11 -19 23 -37 27 -40 4 -3
9 -12 11 -19 2 -8 10 -22 18 -31 8 -9 24 -29 35 -44 29 -41 124 -137 165 -167
118 -87 203 -114 355 -114 103 0 130 4 191 26 128 47 265 160 354 294 22 33
47 69 55 80 8 10 15 23 15 29 0 5 6 17 14 25 8 9 16 23 18 31 2 8 6 17 10 20
7 6 114 218 116 233 1 4 20 46 42 93 22 47 40 89 40 93 0 21 62 87 92 97 37
13 77 -1 110 -40 22 -25 78 -134 78 -152 0 -6 7 -17 15 -24 8 -6 14 -15 13
-18 -1 -8 12 -41 48 -120 15 -31 42 -93 61 -137 49 -111 102 -226 114 -249 6
-10 12 -28 15 -39 2 -11 9 -24 15 -27 6 -4 10 -11 10 -16 -1 -5 9 -31 21 -59
12 -27 21 -53 20 -57 -1 -5 2 -8 8 -8 5 0 10 -9 10 -19 0 -11 7 -26 15 -35 9
-8 15 -19 14 -23 -1 -4 12 -39 30 -78 56 -119 71 -155 63 -155 -4 0 -2 -4 4
-8 6 -4 37 -65 69 -137 87 -198 130 -294 160 -360 64 -142 95 -215 89 -215 -2
0 5 -18 16 -40 11 -22 17 -40 13 -40 -4 0 -2 -5 5 -12 7 -7 12 -22 12 -34 0
-12 7 -27 15 -34 8 -6 13 -15 12 -18 -2 -7 45 -145 68 -197 7 -16 46 -124 86
-240 43 -126 86 -231 107 -263 32 -49 96 -112 115 -112 5 0 15 -6 23 -14 28
-29 144 -44 229 -30 44 7 156 65 148 77 -4 6 0 8 10 4 10 -3 17 -2 17 3 0 6 8
18 18 28 24 25 54 72 45 72 -5 0 -2 4 6 9 14 9 21 26 25 67 1 11 5 24 8 30 18
31 -9 186 -47 269 -7 16 -11 33 -9 37 3 4 0 8 -5 8 -6 0 -10 3 -9 8 4 16 -14
72 -23 72 -6 0 -8 4 -5 8 3 5 -2 22 -10 38 -9 16 -15 30 -15 31 2 12 -13 65
-20 69 -5 3 -9 16 -9 30 0 13 -4 24 -10 24 -5 0 -9 3 -9 8 1 4 0 9 -1 12 -1 3
-3 12 -5 20 -2 8 -18 53 -35 100 -18 47 -34 94 -37 105 -3 11 -10 25 -14 31
-5 6 -10 19 -12 30 -2 10 -9 30 -14 44 -6 14 -9 28 -6 32 2 5 -1 8 -6 8 -6 0
-11 6 -11 13 0 10 -32 100 -65 182 -5 11 -9 22 -10 25 -4 19 -47 128 -55 142
-6 10 -10 25 -10 33 0 8 -5 15 -11 15 -5 0 -8 4 -5 8 3 5 -1 20 -9 35 -7 14
-11 28 -7 31 3 3 0 6 -7 6 -7 0 -11 7 -8 15 4 8 2 17 -4 20 -5 4 -7 11 -4 16
4 5 2 9 -3 9 -6 0 -13 11 -16 24 -3 13 -16 46 -28 73 -12 26 -22 53 -23 58 0
6 -5 17 -10 25 -5 8 -10 20 -11 25 -2 9 -66 165 -96 235 -6 14 -12 27 -13 30
-2 6 -34 79 -103 235 -60 135 -99 220 -147 318 -24 48 -40 87 -37 87 4 0 -1 5
-11 11 -9 6 -14 15 -11 21 4 6 3 13 -2 17 -5 3 -30 47 -54 96 -25 50 -47 92
-50 95 -3 3 -18 30 -34 60 -73 136 -206 344 -285 443 -48 61 -149 166 -198
205 -44 36 -146 81 -189 85 -22 1 -45 6 -52 10 -6 5 -12 4 -12 -2 0 -6 -11 -6
-29 -1 -16 4 -32 5 -36 2 -3 -3 -18 -7 -33 -9 -59 -6 -136 -30 -188 -59 -24
-14 -44 -23 -44 -20 0 6 -42 -29 -86 -71 -19 -18 -34 -30 -34 -27 0 21 -157
-191 -190 -256 -7 -14 -16 -27 -19 -30 -3 -3 -26 -45 -50 -95 -24 -49 -47 -92
-50 -95 -3 -3 -7 -9 -8 -15 -1 -5 -14 -37 -29 -70 -15 -33 -28 -62 -29 -65 -1
-3 -16 -36 -33 -74 -18 -38 -32 -73 -32 -77 0 -5 -4 -9 -8 -9 -5 0 -14 -11
-20 -24 -23 -51 -93 -76 -141 -52 -27 14 -101 96 -86 96 3 0 -1 10 -9 22 -9
12 -16 30 -16 40 0 10 -5 18 -11 18 -5 0 -7 5 -4 10 3 6 1 10 -5 10 -6 0 -9 4
-5 9 3 5 -2 17 -11 25 -8 9 -12 16 -8 16 3 0 2 6 -4 13 -6 6 -11 15 -11 20 -1
4 -12 30 -26 59 -14 28 -25 58 -25 65 0 7 -4 13 -8 13 -8 0 -36 60 -33 73 0 4
-3 7 -8 7 -5 0 -11 8 -14 18 -14 42 -117 212 -129 212 -5 0 -8 6 -8 14 0 15
-174 196 -189 196 -5 0 -16 6 -23 13 -38 37 -178 86 -258 91 -25 1 -50 5 -56
9 -6 3 -14 3 -18 0z"/>
</g>
</svg>
